<svg xmlns="http://www.w3.org/2000/svg" width="256" height="256" viewBox="0 0 100 100"><rect width="100" height="100" rx="20" fill="#f4f3ef"></rect><path fill="#6e6e5f" d="M38.48 32.97L26.60 32.97L26.60 71.64Q26.24 71.78 25.48 71.96Q24.73 72.14 23.94 72.14L23.94 72.14Q20.77 72.14 20.77 69.48L20.77 69.48L20.77 32.97L7.30 32.97Q7.09 32.61 6.87 32Q6.66 31.39 6.66 30.60L6.66 30.60Q6.66 29.37 7.23 28.69Q7.81 28.00 8.89 28.00L8.89 28.00L40.06 28.00Q40.28 28.36 40.50 28.98Q40.71 29.59 40.71 30.31L40.71 30.31Q40.71 31.53 40.14 32.25Q39.56 32.97 38.48 32.97L38.48 32.97ZM73.83 60.40L73.83 60.40Q73.33 60.76 72.50 61.05Q71.67 61.34 70.66 61.34L70.66 61.34Q69.51 61.34 68.61 60.98Q67.71 60.62 67.35 59.83L67.35 59.83Q63.46 51.76 60.66 45.07Q57.85 38.37 56.12 33.98L56.12 33.98L55.83 33.98Q55.62 39.38 55.36 44.02Q55.11 48.67 54.82 53.10Q54.54 57.52 54.25 62.06Q53.96 66.60 53.67 71.78L53.67 71.78Q53.24 71.92 52.56 72.07Q51.87 72.21 51.08 72.21L51.08 72.21Q49.50 72.21 48.85 71.56Q48.20 70.92 48.20 69.69L48.20 69.69Q48.20 68.97 48.31 66.60Q48.42 64.22 48.63 60.84Q48.85 57.45 49.10 53.35Q49.35 49.24 49.68 45.00Q50 40.75 50.32 36.64Q50.65 32.54 50.94 29.16L50.94 29.16Q51.51 28.65 52.59 28.22Q53.67 27.79 55.04 27.79L55.04 27.79Q58.35 27.79 59.65 30.45L59.65 30.45Q61.02 33.26 62.42 36.39Q63.82 39.52 65.23 42.76Q66.63 46.00 67.96 49.17Q69.30 52.34 70.52 55.22L70.52 55.22L70.81 55.22Q72.39 51.40 73.98 47.70Q75.56 43.99 77.07 40.53Q78.58 37.08 79.95 34.05Q81.32 31.03 82.40 28.51L82.40 28.51Q83.05 28.15 84.06 27.97Q85.06 27.79 85.93 27.79L85.93 27.79Q89.31 27.79 89.82 30.09L89.82 30.09Q90.10 31.39 90.46 34.38Q90.82 37.36 91.18 41.25Q91.54 45.14 91.87 49.60Q92.19 54.07 92.48 58.21Q92.77 62.35 92.98 65.84Q93.20 69.33 93.34 71.35L93.34 71.35Q92.05 72.21 90.32 72.21L90.32 72.21Q89.24 72.21 88.41 71.67Q87.58 71.13 87.44 69.69L87.44 69.69Q87.08 64.44 86.79 59.25Q86.50 54.07 86.25 49.39Q86 44.71 85.78 40.78Q85.57 36.86 85.42 34.12L85.42 34.12L85.14 34.12Q84.34 36.14 83.30 38.66Q82.26 41.18 80.85 44.35Q79.45 47.52 77.72 51.51Q75.99 55.51 73.83 60.40Z"></path></svg>